<?xml version="1.0" standalone="no"?>
<!DOCTYPE svg PUBLIC "-//W3C//DTD SVG 20010904//EN"
 "http://www.w3.org/TR/2001/REC-SVG-20010904/DTD/svg10.dtd">
<svg version="1.0" xmlns="http://www.w3.org/2000/svg"
 width="500.000000pt" height="500.000000pt" viewBox="0 0 500.000000 500.000000"
 preserveAspectRatio="xMidYMid meet">
<metadata>
Created by potrace 1.16, written by Peter Selinger 2001-2019
</metadata>
<g transform="translate(0.000000,500.000000) scale(0.100000,-0.100000)"
fill="#000000" stroke="none">
<path d="M2449 4656 c-20 -7 -69 -33 -110 -58 -118 -74 -149 -77 -292 -36 -86
24 -159 25 -195 3 -15 -10 -65 -57 -112 -105 -77 -80 -90 -89 -138 -99 -29 -6
-88 -11 -130 -11 -143 0 -179 -24 -249 -165 -63 -128 -87 -149 -208 -187 -168
-52 -194 -80 -220 -242 -22 -142 -36 -162 -172 -251 -40 -25 -83 -60 -95 -77
-27 -39 -33 -103 -19 -211 16 -120 6 -155 -76 -253 -35 -43 -71 -90 -79 -105
-24 -47 -18 -116 17 -189 50 -105 60 -160 44 -222 -7 -29 -27 -82 -44 -118
-22 -46 -31 -80 -31 -116 0 -55 16 -84 109 -202 63 -79 76 -121 62 -212 -16
-103 -14 -170 8 -210 11 -22 48 -55 97 -88 142 -96 161 -124 184 -281 13 -87
38 -138 83 -167 18 -11 78 -35 134 -53 122 -39 152 -66 208 -188 63 -137 103
-163 245 -163 150 0 171 -9 276 -117 50 -51 107 -100 127 -108 39 -16 97 -10
197 21 89 27 146 23 213 -14 31 -18 83 -46 114 -64 94 -53 144 -45 283 42 100
63 126 67 250 37 58 -14 118 -28 133 -32 47 -10 107 25 181 107 99 109 123
120 276 128 172 9 195 24 264 175 54 118 79 138 232 186 51 16 106 41 123 54
33 28 53 83 71 190 21 130 37 152 185 253 108 74 115 94 100 292 -9 128 -4
145 88 252 101 120 106 153 39 301 -52 116 -52 180 2 296 66 144 60 184 -50
311 -82 94 -88 115 -78 235 13 162 11 189 -20 230 -16 20 -66 61 -112 91 -118
78 -132 100 -158 253 -26 151 -47 175 -191 220 -155 48 -177 67 -234 195 -65
143 -85 156 -263 167 -155 9 -177 19 -273 125 -105 117 -136 125 -313 79 -117
-30 -140 -28 -222 18 -184 102 -196 106 -261 83z m-860 -507 c25 -25 31 -39
31 -74 0 -35 -6 -49 -31 -74 -25 -25 -39 -31 -74 -31 -96 0 -142 111 -74 179
25 25 39 31 74 31 35 0 49 -6 74 -31z m1816 -694 c21 -20 25 -34 25 -85 0 -82
-14 -133 -72 -269 -73 -173 -64 -237 27 -172 24 17 46 31 49 31 3 0 6 -20 6
-45 0 -43 -2 -47 -47 -75 -59 -38 -105 -39 -139 -5 l-24 24 -36 -24 c-43 -29
-108 -33 -135 -9 -16 14 -20 14 -49 -1 -17 -9 -46 -15 -63 -13 -27 3 -34 9
-45 43 -8 24 -11 60 -8 90 l5 50 -47 -90 c-39 -74 -51 -91 -73 -93 -14 -2 -31
3 -38 11 -10 13 -17 12 -48 -4 -41 -21 -69 -17 -95 12 -16 19 -17 19 -50 -1
-68 -41 -158 -11 -158 55 0 22 -4 25 -39 25 -31 0 -44 6 -60 26 -12 15 -21 35
-21 45 0 40 -19 16 -41 -48 -35 -107 -46 -125 -77 -121 -40 5 -48 40 -34 151
15 119 28 164 52 177 31 16 50 2 50 -39 l0 -36 20 29 c26 41 64 60 91 46 19
-10 20 -17 14 -75 -5 -40 -3 -65 4 -69 22 -14 57 8 86 52 17 26 45 57 64 69
35 23 89 30 107 14 5 -5 20 -11 34 -13 28 -3 30 -21 15 -155 -9 -82 -4 -87 43
-48 22 18 32 38 37 68 18 120 27 148 48 156 13 5 30 4 41 -1 15 -8 18 -19 14
-64 -5 -61 -3 -61 32 4 30 57 65 78 95 58 17 -12 19 -22 16 -73 -9 -119 -7
-168 8 -168 17 0 26 17 42 80 15 59 82 132 130 142 35 7 33 2 48 103 14 97 70
214 114 241 42 25 53 24 82 -6z m-1452 -60 c71 -18 124 -45 159 -79 39 -40 43
-71 16 -123 -22 -44 -45 -63 -100 -83 l-27 -9 34 -34 c79 -79 43 -217 -70
-268 -69 -32 -265 -16 -314 24 -18 15 -9 202 14 303 30 131 84 199 133 167 20
-13 20 -18 -13 -111 -20 -56 -27 -101 -32 -191 l-6 -118 24 -6 c13 -4 48 -7
77 -7 89 0 142 41 142 111 0 45 -20 64 -91 85 -68 20 -81 31 -77 63 3 25 6 26
80 31 86 7 126 27 142 73 21 59 -59 97 -201 97 -129 0 -151 -10 -235 -110 -34
-40 -48 -32 -48 27 0 77 46 131 135 159 55 18 189 17 258 -1z m1003 -740 c29
-45 -2 -187 -73 -330 l-25 -50 38 36 c47 44 82 54 112 33 37 -25 29 -73 -23
-150 -49 -71 -55 -94 -27 -94 30 0 70 51 82 104 22 102 65 146 138 146 62 0
92 -28 92 -86 0 -51 -32 -94 -92 -125 -22 -11 -36 -24 -32 -31 12 -19 85 -1
135 34 l49 33 0 81 0 80 -42 10 c-33 7 -43 14 -43 29 0 17 8 20 52 23 51 3 51
3 58 41 8 49 57 153 84 180 12 12 34 21 51 21 66 0 88 -113 38 -203 l-27 -47
32 0 c55 0 77 -10 77 -35 0 -29 -16 -35 -96 -35 -56 0 -65 -3 -79 -24 -22 -33
-17 -174 6 -189 21 -13 67 5 126 50 l43 33 0 -49 0 -49 -57 -33 c-34 -18 -77
-34 -104 -37 -43 -4 -48 -2 -75 32 l-30 35 -29 -20 c-79 -53 -165 -64 -223
-29 l-33 20 -39 -20 c-52 -27 -123 -27 -150 0 -36 36 -20 110 38 172 14 15 23
31 19 34 -11 12 -24 -6 -87 -116 -58 -100 -66 -110 -92 -110 -23 0 -32 7 -41
29 l-13 30 -43 -30 c-55 -37 -124 -40 -165 -8 -26 20 -28 20 -63 4 -20 -10
-53 -20 -74 -22 -34 -5 -40 -2 -56 25 l-18 30 -35 -29 c-42 -36 -103 -40 -120
-10 -13 25 -13 84 1 174 17 107 45 151 90 140 23 -6 23 -17 3 -140 -17 -106
-10 -133 26 -98 13 13 26 53 38 118 11 54 24 103 30 109 13 13 60 14 73 1 6
-6 4 -41 -6 -94 -17 -97 -19 -149 -5 -149 5 0 21 5 35 12 22 10 25 18 25 58 0
61 42 145 82 166 36 19 87 21 117 4 45 -23 51 -109 9 -131 -31 -17 -48 -4 -48
36 0 29 -3 36 -17 33 -26 -5 -43 -46 -43 -105 0 -85 37 -105 106 -55 60 44 66
56 75 150 21 208 70 355 132 393 46 28 93 25 113 -6z m-993 -50 c71 -18 124
-45 159 -79 39 -40 43 -71 16 -123 -22 -44 -45 -63 -100 -83 l-27 -9 34 -34
c79 -79 43 -217 -70 -268 -69 -32 -265 -16 -314 24 -18 15 -9 202 14 303 30
131 84 199 133 167 20 -13 20 -18 -13 -111 -20 -56 -27 -101 -32 -191 l-6
-118 24 -6 c13 -4 48 -7 77 -7 89 0 142 41 142 111 0 45 -20 64 -91 85 -68 20
-81 31 -77 63 3 25 6 26 80 31 86 7 126 27 142 73 21 59 -59 97 -201 97 -129
0 -151 -10 -235 -110 -34 -40 -48 -32 -48 27 0 77 46 131 135 159 55 18 189
17 258 -1z m2365 -310 c15 -19 22 -39 22 -70 0 -37 -5 -47 -35 -74 -25 -22
-46 -31 -70 -31 -24 0 -45 9 -70 31 -30 26 -35 37 -35 74 0 102 120 147 188
70z m-153 -289 c61 -28 87 -56 116 -120 26 -59 22 -131 -9 -192 -68 -132 -245
-165 -354 -66 -53 48 -78 102 -78 172 0 170 171 279 325 206z m-860 -358 c21
-32 19 -55 -10 -84 -18 -18 -31 -23 -50 -18 -23 6 -25 4 -25 -30 0 -25 -4 -36
-15 -36 -12 0 -15 17 -15 94 l0 93 50 2 c40 0 52 -3 65 -21z m-1277 -698 c27
-26 29 -79 4 -110 -25 -31 -89 -31 -114 0 -60 74 41 174 110 110z"/>
</g>
</svg>
